<?xml version="1.0" encoding="UTF-8"?>
<!DOCTYPE svg
  PUBLIC '-//W3C//DTD SVG 1.1//EN'
  'http://www.w3.org/Graphics/SVG/1.1/DTD/svg11.dtd'>
<svg version="1.1" xmlns="http://www.w3.org/2000/svg" width="86.630mm" height="24.764mm">
    <!--Autogenerated with python-barcode 0.14.0-->
    <g id="barcode_group">
        <rect width="100%" height="100%" style="fill:white"/>
        <rect x="2.540mm" y="1.000mm" width="0.700mm" height="16.000mm" style="fill:black;"/>
        <rect x="3.590mm" y="1.000mm" width="0.350mm" height="16.000mm" style="fill:black;"/>
        <rect x="4.640mm" y="1.000mm" width="0.350mm" height="16.000mm" style="fill:black;"/>
        <rect x="6.390mm" y="1.000mm" width="0.700mm" height="16.000mm" style="fill:black;"/>
        <rect x="8.140mm" y="1.000mm" width="0.350mm" height="16.000mm" style="fill:black;"/>
        <rect x="8.840mm" y="1.000mm" width="1.050mm" height="16.000mm" style="fill:black;"/>
        <rect x="10.240mm" y="1.000mm" width="0.700mm" height="16.000mm" style="fill:black;"/>
        <rect x="11.290mm" y="1.000mm" width="0.700mm" height="16.000mm" style="fill:black;"/>
        <rect x="12.690mm" y="1.000mm" width="0.700mm" height="16.000mm" style="fill:black;"/>
        <rect x="14.090mm" y="1.000mm" width="0.700mm" height="16.000mm" style="fill:black;"/>
        <rect x="15.140mm" y="1.000mm" width="1.050mm" height="16.000mm" style="fill:black;"/>
        <rect x="17.240mm" y="1.000mm" width="0.350mm" height="16.000mm" style="fill:black;"/>
        <rect x="17.940mm" y="1.000mm" width="0.350mm" height="16.000mm" style="fill:black;"/>
        <rect x="18.640mm" y="1.000mm" width="0.700mm" height="16.000mm" style="fill:black;"/>
        <rect x="20.390mm" y="1.000mm" width="1.050mm" height="16.000mm" style="fill:black;"/>
        <rect x="21.790mm" y="1.000mm" width="0.700mm" height="16.000mm" style="fill:black;"/>
        <rect x="22.840mm" y="1.000mm" width="1.050mm" height="16.000mm" style="fill:black;"/>
        <rect x="24.940mm" y="1.000mm" width="0.350mm" height="16.000mm" style="fill:black;"/>
        <rect x="25.640mm" y="1.000mm" width="0.350mm" height="16.000mm" style="fill:black;"/>
        <rect x="26.340mm" y="1.000mm" width="1.050mm" height="16.000mm" style="fill:black;"/>
        <rect x="27.740mm" y="1.000mm" width="1.400mm" height="16.000mm" style="fill:black;"/>
        <rect x="29.490mm" y="1.000mm" width="0.700mm" height="16.000mm" style="fill:black;"/>
        <rect x="30.890mm" y="1.000mm" width="0.350mm" height="16.000mm" style="fill:black;"/>
        <rect x="31.940mm" y="1.000mm" width="1.050mm" height="16.000mm" style="fill:black;"/>
        <rect x="33.340mm" y="1.000mm" width="1.050mm" height="16.000mm" style="fill:black;"/>
        <rect x="35.090mm" y="1.000mm" width="0.350mm" height="16.000mm" style="fill:black;"/>
        <rect x="35.790mm" y="1.000mm" width="0.700mm" height="16.000mm" style="fill:black;"/>
        <rect x="37.190mm" y="1.000mm" width="0.350mm" height="16.000mm" style="fill:black;"/>
        <rect x="38.240mm" y="1.000mm" width="0.350mm" height="16.000mm" style="fill:black;"/>
        <rect x="39.290mm" y="1.000mm" width="0.700mm" height="16.000mm" style="fill:black;"/>
        <rect x="41.040mm" y="1.000mm" width="0.700mm" height="16.000mm" style="fill:black;"/>
        <rect x="42.090mm" y="1.000mm" width="0.700mm" height="16.000mm" style="fill:black;"/>
        <rect x="43.140mm" y="1.000mm" width="0.700mm" height="16.000mm" style="fill:black;"/>
        <rect x="44.890mm" y="1.000mm" width="0.700mm" height="16.000mm" style="fill:black;"/>
        <rect x="45.940mm" y="1.000mm" width="1.050mm" height="16.000mm" style="fill:black;"/>
        <rect x="47.690mm" y="1.000mm" width="0.350mm" height="16.000mm" style="fill:black;"/>
        <rect x="48.740mm" y="1.000mm" width="1.050mm" height="16.000mm" style="fill:black;"/>
        <rect x="50.140mm" y="1.000mm" width="0.700mm" height="16.000mm" style="fill:black;"/>
        <rect x="51.890mm" y="1.000mm" width="0.350mm" height="16.000mm" style="fill:black;"/>
        <rect x="52.590mm" y="1.000mm" width="1.050mm" height="16.000mm" style="fill:black;"/>
        <rect x="53.990mm" y="1.000mm" width="0.700mm" height="16.000mm" style="fill:black;"/>
        <rect x="55.390mm" y="1.000mm" width="0.350mm" height="16.000mm" style="fill:black;"/>
        <rect x="56.440mm" y="1.000mm" width="0.350mm" height="16.000mm" style="fill:black;"/>
        <rect x="57.140mm" y="1.000mm" width="1.400mm" height="16.000mm" style="fill:black;"/>
        <rect x="58.890mm" y="1.000mm" width="1.050mm" height="16.000mm" style="fill:black;"/>
        <rect x="60.290mm" y="1.000mm" width="0.350mm" height="16.000mm" style="fill:black;"/>
        <rect x="60.990mm" y="1.000mm" width="0.350mm" height="16.000mm" style="fill:black;"/>
        <rect x="62.040mm" y="1.000mm" width="0.700mm" height="16.000mm" style="fill:black;"/>
        <rect x="64.140mm" y="1.000mm" width="0.350mm" height="16.000mm" style="fill:black;"/>
        <rect x="64.840mm" y="1.000mm" width="1.050mm" height="16.000mm" style="fill:black;"/>
        <rect x="66.240mm" y="1.000mm" width="1.400mm" height="16.000mm" style="fill:black;"/>
        <rect x="67.990mm" y="1.000mm" width="0.700mm" height="16.000mm" style="fill:black;"/>
        <rect x="69.040mm" y="1.000mm" width="0.700mm" height="16.000mm" style="fill:black;"/>
        <rect x="70.440mm" y="1.000mm" width="0.700mm" height="16.000mm" style="fill:black;"/>
        <rect x="71.840mm" y="1.000mm" width="1.050mm" height="16.000mm" style="fill:black;"/>
        <rect x="73.240mm" y="1.000mm" width="1.050mm" height="16.000mm" style="fill:black;"/>
        <rect x="74.640mm" y="1.000mm" width="0.700mm" height="16.000mm" style="fill:black;"/>
        <rect x="75.690mm" y="1.000mm" width="0.700mm" height="16.000mm" style="fill:black;"/>
        <rect x="77.440mm" y="1.000mm" width="0.350mm" height="16.000mm" style="fill:black;"/>
        <rect x="78.140mm" y="1.000mm" width="0.350mm" height="16.000mm" style="fill:black;"/>
        <rect x="79.540mm" y="1.000mm" width="0.700mm" height="16.000mm" style="fill:black;"/>
        <rect x="81.290mm" y="1.000mm" width="1.050mm" height="16.000mm" style="fill:black;"/>
        <rect x="82.690mm" y="1.000mm" width="0.350mm" height="16.000mm" style="fill:black;"/>
        <rect x="83.390mm" y="1.000mm" width="0.700mm" height="16.000mm" style="fill:black;"/>
        <text x="43.315mm" y="22.000mm" style="fill:black;font-size:10pt;text-anchor:middle;">R TKT20250330215827_0048</text>
    </g>
</svg>
