<?xml version="1.0" encoding="UTF-8"?>
<!DOCTYPE svg
  PUBLIC '-//W3C//DTD SVG 1.1//EN'
  'http://www.w3.org/Graphics/SVG/1.1/DTD/svg11.dtd'>
<svg version="1.1" xmlns="http://www.w3.org/2000/svg" width="80.000mm" height="22.353mm">
    <!--Autogenerated with python-barcode 0.14.0-->
    <g id="barcode_group">
        <rect width="100%" height="100%" style="fill:white"/>
        <rect x="6.500mm" y="1.000mm" width="0.200mm" height="15.000mm" style="fill:black;"/>
        <rect x="7.300mm" y="1.000mm" width="0.200mm" height="15.000mm" style="fill:black;"/>
        <rect x="7.700mm" y="1.000mm" width="0.600mm" height="15.000mm" style="fill:black;"/>
        <rect x="8.500mm" y="1.000mm" width="0.600mm" height="15.000mm" style="fill:black;"/>
        <rect x="9.300mm" y="1.000mm" width="0.200mm" height="15.000mm" style="fill:black;"/>
        <rect x="9.700mm" y="1.000mm" width="0.200mm" height="15.000mm" style="fill:black;"/>
        <rect x="10.100mm" y="1.000mm" width="0.200mm" height="15.000mm" style="fill:black;"/>
        <rect x="10.500mm" y="1.000mm" width="0.600mm" height="15.000mm" style="fill:black;"/>
        <rect x="11.300mm" y="1.000mm" width="0.600mm" height="15.000mm" style="fill:black;"/>
        <rect x="12.500mm" y="1.000mm" width="0.200mm" height="15.000mm" style="fill:black;"/>
        <rect x="12.900mm" y="1.000mm" width="0.600mm" height="15.000mm" style="fill:black;"/>
        <rect x="13.700mm" y="1.000mm" width="0.200mm" height="15.000mm" style="fill:black;"/>
        <rect x="14.100mm" y="1.000mm" width="0.200mm" height="15.000mm" style="fill:black;"/>
        <rect x="14.500mm" y="1.000mm" width="0.200mm" height="15.000mm" style="fill:black;"/>
        <rect x="15.300mm" y="1.000mm" width="0.600mm" height="15.000mm" style="fill:black;"/>
        <rect x="16.100mm" y="1.000mm" width="0.200mm" height="15.000mm" style="fill:black;"/>
        <rect x="16.500mm" y="1.000mm" width="0.200mm" height="15.000mm" style="fill:black;"/>
        <rect x="16.900mm" y="1.000mm" width="0.600mm" height="15.000mm" style="fill:black;"/>
        <rect x="17.700mm" y="1.000mm" width="0.600mm" height="15.000mm" style="fill:black;"/>
        <rect x="18.900mm" y="1.000mm" width="0.200mm" height="15.000mm" style="fill:black;"/>
        <rect x="19.300mm" y="1.000mm" width="0.200mm" height="15.000mm" style="fill:black;"/>
        <rect x="19.700mm" y="1.000mm" width="0.600mm" height="15.000mm" style="fill:black;"/>
        <rect x="20.900mm" y="1.000mm" width="0.200mm" height="15.000mm" style="fill:black;"/>
        <rect x="21.300mm" y="1.000mm" width="0.200mm" height="15.000mm" style="fill:black;"/>
        <rect x="21.700mm" y="1.000mm" width="0.600mm" height="15.000mm" style="fill:black;"/>
        <rect x="22.500mm" y="1.000mm" width="0.600mm" height="15.000mm" style="fill:black;"/>
        <rect x="23.300mm" y="1.000mm" width="0.200mm" height="15.000mm" style="fill:black;"/>
        <rect x="24.100mm" y="1.000mm" width="0.600mm" height="15.000mm" style="fill:black;"/>
        <rect x="24.900mm" y="1.000mm" width="0.200mm" height="15.000mm" style="fill:black;"/>
        <rect x="25.300mm" y="1.000mm" width="0.200mm" height="15.000mm" style="fill:black;"/>
        <rect x="25.700mm" y="1.000mm" width="0.200mm" height="15.000mm" style="fill:black;"/>
        <rect x="26.100mm" y="1.000mm" width="0.200mm" height="15.000mm" style="fill:black;"/>
        <rect x="26.900mm" y="1.000mm" width="0.600mm" height="15.000mm" style="fill:black;"/>
        <rect x="27.700mm" y="1.000mm" width="0.600mm" height="15.000mm" style="fill:black;"/>
        <rect x="28.500mm" y="1.000mm" width="0.200mm" height="15.000mm" style="fill:black;"/>
        <rect x="28.900mm" y="1.000mm" width="0.600mm" height="15.000mm" style="fill:black;"/>
        <rect x="29.700mm" y="1.000mm" width="0.600mm" height="15.000mm" style="fill:black;"/>
        <rect x="30.900mm" y="1.000mm" width="0.200mm" height="15.000mm" style="fill:black;"/>
        <rect x="31.300mm" y="1.000mm" width="0.200mm" height="15.000mm" style="fill:black;"/>
        <rect x="31.700mm" y="1.000mm" width="0.200mm" height="15.000mm" style="fill:black;"/>
        <rect x="32.100mm" y="1.000mm" width="0.600mm" height="15.000mm" style="fill:black;"/>
        <rect x="32.900mm" y="1.000mm" width="0.600mm" height="15.000mm" style="fill:black;"/>
        <rect x="34.100mm" y="1.000mm" width="0.200mm" height="15.000mm" style="fill:black;"/>
        <rect x="34.500mm" y="1.000mm" width="0.200mm" height="15.000mm" style="fill:black;"/>
        <rect x="34.900mm" y="1.000mm" width="0.200mm" height="15.000mm" style="fill:black;"/>
        <rect x="35.300mm" y="1.000mm" width="0.200mm" height="15.000mm" style="fill:black;"/>
        <rect x="35.700mm" y="1.000mm" width="0.200mm" height="15.000mm" style="fill:black;"/>
        <rect x="36.500mm" y="1.000mm" width="0.600mm" height="15.000mm" style="fill:black;"/>
        <rect x="37.300mm" y="1.000mm" width="0.600mm" height="15.000mm" style="fill:black;"/>
        <rect x="38.100mm" y="1.000mm" width="0.200mm" height="15.000mm" style="fill:black;"/>
        <rect x="38.500mm" y="1.000mm" width="0.200mm" height="15.000mm" style="fill:black;"/>
        <rect x="38.900mm" y="1.000mm" width="0.600mm" height="15.000mm" style="fill:black;"/>
        <rect x="40.100mm" y="1.000mm" width="0.200mm" height="15.000mm" style="fill:black;"/>
        <rect x="40.500mm" y="1.000mm" width="0.200mm" height="15.000mm" style="fill:black;"/>
        <rect x="40.900mm" y="1.000mm" width="0.600mm" height="15.000mm" style="fill:black;"/>
        <rect x="41.700mm" y="1.000mm" width="0.200mm" height="15.000mm" style="fill:black;"/>
        <rect x="42.100mm" y="1.000mm" width="0.600mm" height="15.000mm" style="fill:black;"/>
        <rect x="43.300mm" y="1.000mm" width="0.200mm" height="15.000mm" style="fill:black;"/>
        <rect x="43.700mm" y="1.000mm" width="0.200mm" height="15.000mm" style="fill:black;"/>
        <rect x="44.100mm" y="1.000mm" width="0.600mm" height="15.000mm" style="fill:black;"/>
        <rect x="44.900mm" y="1.000mm" width="0.200mm" height="15.000mm" style="fill:black;"/>
        <rect x="45.300mm" y="1.000mm" width="0.200mm" height="15.000mm" style="fill:black;"/>
        <rect x="46.100mm" y="1.000mm" width="0.600mm" height="15.000mm" style="fill:black;"/>
        <rect x="46.900mm" y="1.000mm" width="0.200mm" height="15.000mm" style="fill:black;"/>
        <rect x="47.300mm" y="1.000mm" width="0.600mm" height="15.000mm" style="fill:black;"/>
        <rect x="48.100mm" y="1.000mm" width="0.600mm" height="15.000mm" style="fill:black;"/>
        <rect x="48.900mm" y="1.000mm" width="0.600mm" height="15.000mm" style="fill:black;"/>
        <rect x="50.100mm" y="1.000mm" width="0.200mm" height="15.000mm" style="fill:black;"/>
        <rect x="50.500mm" y="1.000mm" width="0.200mm" height="15.000mm" style="fill:black;"/>
        <rect x="50.900mm" y="1.000mm" width="0.200mm" height="15.000mm" style="fill:black;"/>
        <rect x="51.300mm" y="1.000mm" width="0.200mm" height="15.000mm" style="fill:black;"/>
        <rect x="51.700mm" y="1.000mm" width="0.600mm" height="15.000mm" style="fill:black;"/>
        <rect x="52.900mm" y="1.000mm" width="0.200mm" height="15.000mm" style="fill:black;"/>
        <rect x="53.300mm" y="1.000mm" width="0.200mm" height="15.000mm" style="fill:black;"/>
        <rect x="53.700mm" y="1.000mm" width="0.600mm" height="15.000mm" style="fill:black;"/>
        <rect x="54.500mm" y="1.000mm" width="0.600mm" height="15.000mm" style="fill:black;"/>
        <rect x="55.300mm" y="1.000mm" width="0.200mm" height="15.000mm" style="fill:black;"/>
        <rect x="56.100mm" y="1.000mm" width="0.200mm" height="15.000mm" style="fill:black;"/>
        <rect x="56.500mm" y="1.000mm" width="0.600mm" height="15.000mm" style="fill:black;"/>
        <rect x="57.300mm" y="1.000mm" width="0.200mm" height="15.000mm" style="fill:black;"/>
        <rect x="57.700mm" y="1.000mm" width="0.200mm" height="15.000mm" style="fill:black;"/>
        <rect x="58.100mm" y="1.000mm" width="0.200mm" height="15.000mm" style="fill:black;"/>
        <rect x="58.900mm" y="1.000mm" width="0.600mm" height="15.000mm" style="fill:black;"/>
        <rect x="59.700mm" y="1.000mm" width="0.600mm" height="15.000mm" style="fill:black;"/>
        <rect x="60.500mm" y="1.000mm" width="0.200mm" height="15.000mm" style="fill:black;"/>
        <rect x="60.900mm" y="1.000mm" width="0.200mm" height="15.000mm" style="fill:black;"/>
        <rect x="61.300mm" y="1.000mm" width="0.200mm" height="15.000mm" style="fill:black;"/>
        <rect x="62.100mm" y="1.000mm" width="0.600mm" height="15.000mm" style="fill:black;"/>
        <rect x="62.900mm" y="1.000mm" width="0.600mm" height="15.000mm" style="fill:black;"/>
        <rect x="63.700mm" y="1.000mm" width="0.200mm" height="15.000mm" style="fill:black;"/>
        <rect x="64.100mm" y="1.000mm" width="0.200mm" height="15.000mm" style="fill:black;"/>
        <rect x="64.500mm" y="1.000mm" width="0.200mm" height="15.000mm" style="fill:black;"/>
        <rect x="65.300mm" y="1.000mm" width="0.600mm" height="15.000mm" style="fill:black;"/>
        <rect x="66.100mm" y="1.000mm" width="0.600mm" height="15.000mm" style="fill:black;"/>
        <rect x="66.900mm" y="1.000mm" width="0.200mm" height="15.000mm" style="fill:black;"/>
        <rect x="67.300mm" y="1.000mm" width="0.600mm" height="15.000mm" style="fill:black;"/>
        <rect x="68.100mm" y="1.000mm" width="0.200mm" height="15.000mm" style="fill:black;"/>
        <rect x="68.900mm" y="1.000mm" width="0.200mm" height="15.000mm" style="fill:black;"/>
        <rect x="69.300mm" y="1.000mm" width="0.200mm" height="15.000mm" style="fill:black;"/>
        <rect x="69.700mm" y="1.000mm" width="0.600mm" height="15.000mm" style="fill:black;"/>
        <rect x="70.500mm" y="1.000mm" width="0.200mm" height="15.000mm" style="fill:black;"/>
        <rect x="71.300mm" y="1.000mm" width="0.200mm" height="15.000mm" style="fill:black;"/>
        <rect x="71.700mm" y="1.000mm" width="0.600mm" height="15.000mm" style="fill:black;"/>
        <rect x="72.500mm" y="1.000mm" width="0.600mm" height="15.000mm" style="fill:black;"/>
        <rect x="73.300mm" y="1.000mm" width="0.200mm" height="15.000mm" style="fill:black;"/>
        <text x="40.000mm" y="21.000mm" style="fill:black;font-size:2pt;text-anchor:middle;">TKT2503302243280001</text>
    </g>
</svg>
